<svg width="1440" height="450" viewBox="0 0 1440 450" fill="none" xmlns="http://www.w3.org/2000/svg">
  <defs>
    <filter id="liquid-glow" x="-20%" y="-20%" width="140%" height="140%" filterUnits="userSpaceOnUse">
      <feGaussianBlur stdDeviation="15" result="blur" />
      <feComposite in="SourceGraphic" in2="blur" operator="over" />
    </filter>
    <linearGradient id="liquid-grad" x1="720" y1="0" x2="720" y2="450" gradientUnits="userSpaceOnUse">
      <stop stop-color="#111111" />
      <stop offset="0.5" stop-color="#050505" />
      <stop offset="1" stop-color="#000000" />
    </linearGradient>
    <radialGradient id="highlight-grad" cx="0" cy="0" r="1" gradientUnits="userSpaceOnUse" gradientTransform="translate(720 225) rotate(90) scale(200 600)">
      <stop stop-color="white" stop-opacity="0.1" />
      <stop offset="1" stop-color="white" stop-opacity="0" />
    </radialGradient>
    <linearGradient id="bottom-fade" x1="720" y1="300" x2="720" y2="450" gradientUnits="userSpaceOnUse">
      <stop stop-color="black" stop-opacity="0" />
      <stop offset="1" stop-color="black" />
    </linearGradient>
  </defs>
  <rect width="1440" height="450" fill="url(#liquid-grad)" />
  <path d="M-100 300C100 250 300 350 500 280C700 210 900 320 1100 280C1300 240 1500 350 1600 300V450H-100V300Z" fill="#080808" />
  <path d="M0 260C200 200 400 380 650 220C850 100 1100 300 1440 200" stroke="white" stroke-width="0.5" stroke-opacity="0.2" stroke-linecap="round" />
  <path d="M0 280C300 220 500 400 720 250C950 100 1200 350 1440 280" stroke="white" stroke-width="2" stroke-opacity="0.15" stroke-linecap="round" filter="url(#liquid-glow)" />
  <path d="M400 300C500 280 650 220 750 230" stroke="white" stroke-width="1.5" stroke-opacity="0.4" stroke-linecap="round" filter="url(#liquid-glow)" />
  <path d="M800 220C950 200 1100 280 1250 250" stroke="white" stroke-width="1" stroke-opacity="0.3" stroke-linecap="round" filter="url(#liquid-glow)" />
  <ellipse cx="720" cy="225" rx="400" ry="100" fill="url(#highlight-grad)" />
  <rect width="1440" height="150" y="300" fill="url(#bottom-fade)" />
</svg>
